<svg xmlns="http://www.w3.org/2000/svg" viewBox="0 0 24 24" width="100" height="100">
  <defs>
    <linearGradient id="gradient" x1="0%" y1="0%" x2="100%" y2="100%">
      <stop offset="0%" stop-color="#6366F1" />
      <stop offset="100%" stop-color="#8B5CF6" />
    </linearGradient>
  </defs>
  <rect width="24" height="24" rx="5" fill="url(#gradient)" opacity="0.1"/>
  
  <!-- Australia flag - blue background -->
  <rect x="4" y="6" width="16" height="12" rx="1" fill="#00008B"/>
  
  <!-- Union Jack (simplified) -->
  <path d="M4 6h8v6.5h-8z" fill="#00008B"/>
  <path d="M4 6l8 6.5M12 6l-8 6.5" stroke="white" stroke-width="0.7"/>
  <path d="M4 6l8 6.5M12 6l-8 6.5" stroke="#ff0000" stroke-width="0.3"/>
  <path d="M8 6v6.5M4 9.25h8" stroke="white" stroke-width="1.2"/>
  <path d="M8 6v6.5M4 9.25h8" stroke="#ff0000" stroke-width="0.6"/>
  
  <!-- Commonwealth Star -->
  <path d="M16 9l0.5-1.5L18 7l-1.5-0.5L16 5l-0.5 1.5L14 7l1.5 0.5L16 9z" fill="white"/>
  
  <!-- Southern Cross (simplified) -->
  <path d="M18 11l0.3-0.7L19 10l-0.7-0.3L18 9l-0.3 0.7L17 10l0.7 0.3L18 11z" fill="white"/>
  <path d="M18 15l0.3-0.7L19 14l-0.7-0.3L18 13l-0.3 0.7L17 14l0.7 0.3L18 15z" fill="white"/>
  <path d="M15 13l0.3-0.7L16 12l-0.7-0.3L15 11l-0.3 0.7L14 12l0.7 0.3L15 13z" fill="white"/>
  <path d="M20 13l0.2-0.5L20.7 12.3l-0.5-0.2L20 11.6l-0.2 0.5L19.3 12.3l0.5 0.2L20 13z" fill="white"/>
  
  <!-- Flag pole -->
  <rect x="3" y="6" width="1" height="12" fill="#6366F1"/>
  <path d="M3 6c0-1 0.5-2 2-2h1" fill="none" stroke="#6366F1" stroke-width="0.5"/>
  <circle cx="3" cy="4" r="0.5" fill="#6366F1"/>
</svg>