<svg xmlns="http://www.w3.org/2000/svg" viewBox="0 0 24 24" width="100" height="100">
  <defs>
    <linearGradient id="gradient" x1="0%" y1="0%" x2="100%" y2="100%">
      <stop offset="0%" stop-color="#6366F1" />
      <stop offset="100%" stop-color="#8B5CF6" />
    </linearGradient>
  </defs>
  <rect width="24" height="24" rx="5" fill="url(#gradient)" opacity="0.1"/>
  
  <!-- USA flag -->
  <rect x="4" y="6" width="16" height="12" rx="1" fill="#fff"/>
  
  <!-- Blue canton -->
  <rect x="4" y="6" width="8" height="6.5" fill="#002868"/>
  
  <!-- Stars (simplified) -->
  <circle cx="5.5" cy="7.5" r="0.3" fill="white"/>
  <circle cx="7" cy="7.5" r="0.3" fill="white"/>
  <circle cx="8.5" cy="7.5" r="0.3" fill="white"/>
  <circle cx="10" cy="7.5" r="0.3" fill="white"/>
  
  <circle cx="5.5" cy="8.5" r="0.3" fill="white"/>
  <circle cx="7" cy="8.5" r="0.3" fill="white"/>
  <circle cx="8.5" cy="8.5" r="0.3" fill="white"/>
  <circle cx="10" cy="8.5" r="0.3" fill="white"/>
  
  <circle cx="5.5" cy="9.5" r="0.3" fill="white"/>
  <circle cx="7" cy="9.5" r="0.3" fill="white"/>
  <circle cx="8.5" cy="9.5" r="0.3" fill="white"/>
  <circle cx="10" cy="9.5" r="0.3" fill="white"/>
  
  <circle cx="5.5" cy="10.5" r="0.3" fill="white"/>
  <circle cx="7" cy="10.5" r="0.3" fill="white"/>
  <circle cx="8.5" cy="10.5" r="0.3" fill="white"/>
  <circle cx="10" cy="10.5" r="0.3" fill="white"/>
  
  <!-- Red stripes -->
  <rect x="4" y="12.5" width="16" height="0.9" fill="#bf0a30"/>
  <rect x="4" y="14.3" width="16" height="0.9" fill="#bf0a30"/>
  <rect x="4" y="16.1" width="16" height="0.9" fill="#bf0a30"/>
  <rect x="12" y="6" width="8" height="0.9" fill="#bf0a30"/>
  <rect x="12" y="7.8" width="8" height="0.9" fill="#bf0a30"/>
  <rect x="12" y="9.6" width="8" height="0.9" fill="#bf0a30"/>
  <rect x="12" y="11.4" width="8" height="0.9" fill="#bf0a30"/>
  
  <!-- Flag pole -->
  <rect x="3" y="6" width="1" height="12" fill="#6366F1"/>
  <path d="M3 6c0-1 0.5-2 2-2h1" fill="none" stroke="#6366F1" stroke-width="0.5"/>
  <circle cx="3" cy="4" r="0.5" fill="#6366F1"/>
</svg>