<svg xmlns="http://www.w3.org/2000/svg" viewBox="0 0 24 24" width="100" height="100">
  <defs>
    <linearGradient id="gradient" x1="0%" y1="0%" x2="100%" y2="100%">
      <stop offset="0%" stop-color="#6366F1" />
      <stop offset="100%" stop-color="#8B5CF6" />
    </linearGradient>
  </defs>
  <rect width="24" height="24" rx="5" fill="url(#gradient)" opacity="0.1"/>
  
  <!-- Central hub -->
  <circle cx="12" cy="12" r="3" fill="#6366F1" opacity="0.7"/>
  
  <!-- Platform icons -->
  <!-- Social media 1 (top) -->
  <circle cx="12" cy="4" r="2" fill="none" stroke="#6366F1" stroke-width="1.5"/>
  <path d="M12 7V9" stroke="#6366F1" stroke-width="1.5" stroke-linecap="round"/>
  
  <!-- Social media 2 (right) -->
  <rect x="18" y="10" width="4" height="4" rx="1" fill="none" stroke="#6366F1" stroke-width="1.5"/>
  <path d="M15 12h3" stroke="#6366F1" stroke-width="1.5" stroke-linecap="round"/>
  
  <!-- Social media 3 (bottom) -->
  <path d="M10 18h4v2a1 1 0 01-1 1h-2a1 1 0 01-1-1v-2z" fill="none" stroke="#6366F1" stroke-width="1.5"/>
  <path d="M12 15v3" stroke="#6366F1" stroke-width="1.5" stroke-linecap="round"/>
  
  <!-- Social media 4 (left) -->
  <path d="M4 10l2 2-2 2" fill="none" stroke="#6366F1" stroke-width="1.5" stroke-linecap="round" stroke-linejoin="round"/>
  <path d="M6 12H9" stroke="#6366F1" stroke-width="1.5" stroke-linecap="round"/>
  
  <!-- Sync arrows -->
  <path d="M12 4.5c4.5 0 7.5 3 7.5 7.5M12 19.5c-4.5 0-7.5-3-7.5-7.5" stroke="#6366F1" stroke-width="0.75" stroke-dasharray="1 1" opacity="0.7"/>
</svg>