<svg xmlns="http://www.w3.org/2000/svg" viewBox="0 0 24 24" width="100" height="100">
  <defs>
    <linearGradient id="gradient" x1="0%" y1="0%" x2="100%" y2="100%">
      <stop offset="0%" stop-color="#6366F1" />
      <stop offset="100%" stop-color="#8B5CF6" />
    </linearGradient>
  </defs>
  <rect width="24" height="24" rx="5" fill="url(#gradient)" opacity="0.1"/>
  
  <!-- India flag - tricolor -->
  <rect x="4" y="6" width="16" height="12" rx="1" fill="#fff"/>
  <rect x="4" y="6" width="16" height="4" fill="#FF9933"/> <!-- Saffron -->
  <rect x="4" y="14" width="16" height="4" fill="#138808"/> <!-- Green -->
  
  <!-- Ashoka Chakra (simplified) -->
  <circle cx="12" cy="12" r="2" fill="#000080"/> <!-- Navy Blue -->
  <circle cx="12" cy="12" r="1.7" fill="#fff"/>
  <circle cx="12" cy="12" r="0.3" fill="#000080"/>
  
  <!-- Spokes (simplified) -->
  <path d="M12 10.3v-0.6M12 14.3v-0.6M10.3 12h-0.6M14.3 12h-0.6" stroke="#000080" stroke-width="0.2"/>
  <path d="M10.9 10.9l-0.4-0.4M13.5 13.5l-0.4-0.4M10.9 13.1l-0.4 0.4M13.5 10.5l-0.4 0.4" stroke="#000080" stroke-width="0.2"/>
  
  <!-- Flag pole -->
  <rect x="3" y="6" width="1" height="12" fill="#6366F1"/>
  <path d="M3 6c0-1 0.5-2 2-2h1" fill="none" stroke="#6366F1" stroke-width="0.5"/>
  <circle cx="3" cy="4" r="0.5" fill="#6366F1"/>
</svg>