<svg xmlns="http://www.w3.org/2000/svg" viewBox="0 0 24 24" width="100" height="100">
  <defs>
    <linearGradient id="gradient" x1="0%" y1="0%" x2="100%" y2="100%">
      <stop offset="0%" stop-color="#6366F1" />
      <stop offset="100%" stop-color="#8B5CF6" />
    </linearGradient>
  </defs>
  <rect width="24" height="24" rx="5" fill="url(#gradient)" opacity="0.1"/>
  <path d="M12 2C6.48 2 2 6.48 2 12s4.48 10 10 10 10-4.48 10-10S17.52 2 12 2zm0 18c-4.41 0-8-3.59-8-8s3.59-8 8-8 8 3.59 8 8-3.59 8-8 8z" fill="#6366F1"/>
  <path d="M9 8.5l6 3.5-6 3.5v-7z" fill="#6366F1"/>
  <circle cx="12" cy="12" r="1.5" fill="#6366F1"/>
  <path d="M12 7v2M12 15v2M7 12h2M15 12h2" stroke="#6366F1" stroke-width="1.5" stroke-linecap="round"/>
  <path d="M8.5 8.5l1 1M14.5 14.5l1 1M14.5 8.5l-1 1M8.5 14.5l-1 1" stroke="#6366F1" stroke-width="1.5" stroke-linecap="round"/>
</svg>