<svg xmlns="http://www.w3.org/2000/svg" viewBox="0 0 24 24" width="100" height="100">
  <defs>
    <linearGradient id="gradient" x1="0%" y1="0%" x2="100%" y2="100%">
      <stop offset="0%" stop-color="#6366F1" />
      <stop offset="100%" stop-color="#8B5CF6" />
    </linearGradient>
  </defs>
  <rect width="24" height="24" rx="5" fill="url(#gradient)" opacity="0.1"/>
  <path d="M4 6h16c1.1 0 2 .9 2 2v8c0 1.1-.9 2-2 2H4c-1.1 0-2-.9-2-2V8c0-1.1.9-2 2-2z" fill="none" stroke="#6366F1" stroke-width="1.5"/>
  <path d="M22 8l-10 5L2 8" fill="none" stroke="#6366F1" stroke-width="1.5"/>
  <path d="M12 13v5" stroke="#6366F1" stroke-width="1.5" stroke-linecap="round"/>
  <path d="M8 18h8" stroke="#6366F1" stroke-width="1.5" stroke-linecap="round"/>
  <circle cx="12" cy="8" r="1" fill="#6366F1"/>
  <path d="M7 10l-2 2M17 10l2 2" stroke="#6366F1" stroke-width="1" stroke-linecap="round"/>
</svg>